HIERARCHY
ROOT Hips
{
	OFFSET 0.00000 0.00000 0.00000
	CHANNELS 6 Xposition Yposition Zposition Zrotation Yrotation Xrotation 
	JOINT LHipJoint
	{
		OFFSET 0 0 0
		CHANNELS 3 Zrotation Yrotation Xrotation
		JOINT LeftHip
		{
			OFFSET 1.77779 -1.88989 0.48267
			CHANNELS 3 Zrotation Yrotation Xrotation
			JOINT LeftKnee
			{
				OFFSET 2.53442 -6.96327 0.00000
				CHANNELS 3 Zrotation Yrotation Xrotation
				JOINT LeftAnkle
				{
					OFFSET 2.71068 -7.44755 0.00000
					CHANNELS 3 Zrotation Yrotation Xrotation
					JOINT LeftToe
					{
						OFFSET 0.17992 -0.49431 2.22524
						CHANNELS 3 Zrotation Yrotation Xrotation
						End Site
						{
							OFFSET 0.00000 -0.00000 1.14687
						}
					}
				}
			}
		}
	}
	JOINT RHipJoint
	{
		OFFSET 0 0 0
		CHANNELS 3 Zrotation Yrotation Xrotation
		JOINT RightHip
		{
			OFFSET -1.58469 -1.88989 0.48267
			CHANNELS 3 Zrotation Yrotation Xrotation
			JOINT RightKnee
			{
				OFFSET -2.60386 -7.15404 0.00000
				CHANNELS 3 Zrotation Yrotation Xrotation
				JOINT RightAnkle
				{
					OFFSET -2.73334 -7.50979 0.00000
					CHANNELS 3 Zrotation Yrotation Xrotation
					JOINT RightToe
					{
						OFFSET -0.25618 -0.70384 2.21822
						CHANNELS 3 Zrotation Yrotation Xrotation
						End Site
						{
							OFFSET -0.00000 -0.00000 1.16381
						}
					}
				}
			}
		}
	}
	JOINT lowerback
	{
		OFFSET 0 0 0
		CHANNELS 3 Zrotation Yrotation Xrotation
		JOINT Chest
		{
			OFFSET 0.03410 2.01612 -0.22230
			CHANNELS 3 Zrotation Yrotation Xrotation
			JOINT Chest2
			{
				OFFSET 0.03465 2.03012 0.00937
				CHANNELS 3 Zrotation Yrotation Xrotation
				JOINT lowerneck
				{
					OFFSET 0 0 0
					CHANNELS 3 Zrotation Yrotation Xrotation
					JOINT Neck
					{
						OFFSET -0.00219 1.70459 0.20857
						CHANNELS 3 Zrotation Yrotation Xrotation
						JOINT Head
						{
							OFFSET 0.02518 1.72339 -0.22179
							CHANNELS 3 Zrotation Yrotation Xrotation
							End Site
							{
								OFFSET 0.00282 1.74122 -0.09823
							}
						}
					}
				}
				JOINT LeftCollar
				{
					OFFSET 0 0 0
					CHANNELS 3 Zrotation Yrotation Xrotation
					JOINT LeftShoulder
					{
						OFFSET 3.36358 1.00547 -0.37661
CHANNELS 3 Zrotation Xrotation Yrotation
						JOINT LeftElbow
						{
OFFSET 0 -5.065070 0.000000
CHANNELS 3 Zrotation Xrotation Yrotation
							JOINT LeftWrist
							{
OFFSET 0 -3.601960 0.000000
CHANNELS 3 Zrotation Xrotation Yrotation
								JOINT lhand
								{
									OFFSET 0 0 0
CHANNELS 3 Zrotation Xrotation Yrotation
									JOINT LFingers
									{
OFFSET 0 -0.450350 0.000000
CHANNELS 3 Zrotation Xrotation Yrotation
										End Site
										{
OFFSET 0 -0.363080 0.000000
										}
									}
								}
								JOINT LThumb
								{
OFFSET 0 0.000000 0.000000
CHANNELS 3 Zrotation Xrotation Yrotation
									End Site
									{
OFFSET 0 -0.368620 0.368620
									}
								}
							}
						}
					}
				}
				JOINT RightCollar
				{
					OFFSET 0 0 0
					CHANNELS 3 Zrotation Yrotation Xrotation
					JOINT RightShoulder
					{
						OFFSET -3.50159 0.80383 -0.71526
CHANNELS 3 Zrotation Xrotation Yrotation
						JOINT RightElbow
						{
OFFSET 0 -5.363940 0.000000
CHANNELS 3 Zrotation Xrotation Yrotation
							JOINT RightWrist
							{
OFFSET 0 -3.580350 0.000000
CHANNELS 3 Zrotation Xrotation Yrotation
								JOINT rhand
								{
									OFFSET 0 0 0
CHANNELS 3 Zrotation Xrotation Yrotation
									JOINT RFingers
									{
OFFSET 0 -0.663750 0.000000
CHANNELS 3 Zrotation Xrotation Yrotation
										End Site
										{
OFFSET 0 -0.535130 0.000000
										}
									}
								}
								JOINT RThumb
								{
OFFSET 0 0.000000 0.000000
CHANNELS 3 Zrotation Xrotation Yrotation
									End Site
									{
OFFSET 0 -0.543300 0.543300
									}
								}
							}
						}
					}
				}
			}
		}
	}
}
MOTION
Frames: 8
Frame Time: 0.008333333333333333
-0.249363 18.199662 13.921946 -4.923067 -0.341380 -4.699354 0.000000 0.000000 0.000000 -14.451458 -0.344042 -13.493528 12.927336 18.755716 68.899625 -0.029907 -6.583734 8.554973 0.118886 -2.219493 -6.112694 0.000000 0.000000 0.000000 30.529781 9.608129 -7.275091 -2.062316 -8.994778 25.778935 -0.299905 -0.092660 -10.377987 -0.219592 -3.016306 8.324185 3.085763 -0.582665 10.782235 2.889313 -0.199495 -0.210614 1.329687 -0.148153 -6.284076 -1.588417 -3.278757 -17.769905 1.297459 -4.461199 21.593851 0.109371 -2.047238 9.859721 0.000000 0.000000 0.000000 3.409573 -0.568696 -22.787240 14.411814 -23.320251 2.989235 29.668902 11.246934 -26.495817 0.000000 0.000000 0.000000 -7.125000 0.000000 0.000000 -0.366738 59.822319 0.132901 0.000000 0.000000 0.000000 0.100487 -2.897285 -2.994362 -9.668473 -16.219283 -1.380956 -16.189553 6.603979 -20.617271 0.000000 0.000000 0.000000 7.125000 0.000000 0.000000 7.875866 8.749964 6.651173
-0.245992 18.200000 14.033219 -4.748589 -0.492259 -4.757764 0.000000 0.000000 0.000000 -14.657198 -0.336978 -14.173686 12.975835 18.773384 69.050386 -0.060142 -6.352131 7.152519 0.133150 -2.350659 -6.475873 0.000000 0.000000 0.000000 30.421025 9.443883 -6.787117 -2.058711 -8.987320 25.755614 -0.326642 0.087676 -10.760993 -0.198524 -2.865820 7.905688 2.985826 -0.490493 10.794518 2.819567 -0.096735 -0.130610 1.294802 -0.094979 -6.205817 -1.652951 -3.293034 -17.764685 1.331713 -4.471717 21.626860 0.130333 -2.053070 9.873191 0.000000 0.000000 0.000000 3.329750 -0.412857 -22.713819 14.414676 -23.324350 2.990306 29.652728 10.741038 -25.589390 0.000000 0.000000 0.000000 -7.125000 0.000000 0.000000 -0.094717 58.835525 0.036958 0.000000 0.000000 0.000000 0.023636 -3.010429 -1.641940 -9.890375 -16.567354 -1.443995 -16.165446 5.445175 -20.498230 0.000000 0.000000 0.000000 7.125000 0.000000 0.000000 7.885782 8.874102 6.639875
-0.243638 18.197310 14.140976 -4.675681 -0.662539 -4.804157 0.000000 0.000000 0.000000 -14.728428 -0.353729 -14.896683 13.006297 18.784394 69.144991 -0.082836 -6.152337 5.879399 0.136447 -2.378968 -6.554429 0.000000 0.000000 0.000000 30.434894 9.361497 -6.336852 -2.061346 -8.992606 25.772226 -0.352800 0.187874 -11.154044 -0.173496 -2.680580 7.390920 2.971870 -0.389941 10.850972 2.775772 0.032471 -0.059620 1.235311 -0.031339 -6.162099 -1.676505 -3.323068 -17.833456 1.325012 -4.505488 21.687613 0.125555 -2.070230 9.908600 0.000000 0.000000 0.000000 3.267799 -0.233860 -22.711936 14.454977 -23.381327 3.006274 29.629253 10.119866 -24.515559 0.000000 0.000000 0.000000 -7.125000 0.000000 0.000000 0.208897 57.662876 -0.062270 0.000000 0.000000 0.000000 -0.041017 -3.124865 -0.363203 -10.142939 -16.962546 -1.516598 -16.259330 4.442491 -20.117657 0.000000 0.000000 0.000000 7.125000 0.000000 0.000000 7.808159 9.250637 6.514662
-0.242354 18.193794 14.241787 -4.837613 -0.883294 -4.784820 0.000000 0.000000 0.000000 -14.489079 -0.434120 -15.758136 13.019076 18.788992 69.184747 -0.091490 -5.955651 4.911659 0.117786 -2.210815 -6.088780 0.000000 0.000000 0.000000 30.724411 9.435736 -5.975732 -2.069324 -9.008968 25.823476 -0.373760 0.157583 -11.493122 -0.148615 -2.482272 6.840688 3.180658 -0.276757 10.970241 2.794501 0.216040 -0.037307 1.108875 0.052366 -6.205439 -1.656627 -3.376956 -17.957999 1.275316 -4.574724 21.792819 0.092358 -2.104442 9.968640 0.000000 0.000000 0.000000 3.230139 -0.059284 -22.782050 14.473367 -23.407358 3.013644 29.688414 9.574773 -23.614823 0.000000 0.000000 0.000000 -7.125000 0.000000 0.000000 0.523296 56.692566 -0.148138 0.000000 0.000000 0.000000 -0.129184 -3.272531 0.663495 -10.380395 -17.332185 -1.586577 -16.496042 3.832827 -19.309279 0.000000 0.000000 0.000000 7.125000 0.000000 0.000000 7.619722 10.046911 6.231027
-0.240906 18.198471 14.348728 -4.950606 -1.050118 -4.734122 0.000000 0.000000 0.000000 -14.305994 -0.575442 -16.568588 12.991216 18.778940 69.098301 -0.095533 -5.775352 3.973217 0.083770 -1.840989 -5.067105 0.000000 0.000000 0.000000 30.927606 9.444052 -5.648198 -2.080666 -9.032058 25.895670 -0.393146 0.109008 -11.805288 -0.146304 -2.464857 6.792280 3.375665 -0.195748 10.987669 2.764235 0.348823 -0.063392 0.946250 0.110461 -6.241183 -1.603869 -3.384670 -17.718042 1.302558 -4.607119 21.647356 0.094156 -2.115052 9.872040 0.000000 0.000000 0.000000 3.269795 0.182191 -22.743813 14.424588 -23.338385 2.994320 29.662934 9.305414 -23.429413 0.000000 0.000000 0.000000 -7.125000 0.000000 0.000000 0.546118 56.484352 -0.153815 0.000000 0.000000 0.000000 -0.177635 -3.476896 1.191463 -10.476186 -17.480943 -1.615104 -16.832424 3.741156 -19.129471 0.000000 0.000000 0.000000 7.125000 0.000000 0.000000 7.393523 10.190473 6.020530
-0.238019 18.203678 14.457267 -4.995871 -1.157171 -4.673539 0.000000 0.000000 0.000000 -14.222533 -0.776137 -17.333549 12.938197 18.759640 68.933508 -0.096756 -5.609780 2.965443 0.059622 -1.575571 -4.333994 0.000000 0.000000 0.000000 31.025987 9.347940 -5.353972 -2.091568 -9.054224 25.964993 -0.412298 0.106364 -12.092612 -0.153027 -2.519723 6.944423 3.520718 -0.140658 10.941472 2.711871 0.434705 -0.063600 0.795471 0.147578 -6.213537 -1.540458 -3.363611 -17.544382 1.340492 -4.604114 21.508600 0.101572 -2.106490 9.789610 0.000000 0.000000 0.000000 3.311359 0.364158 -22.662831 14.353653 -23.237978 2.966259 29.506702 8.932469 -23.258924 0.000000 0.000000 0.000000 -7.125000 0.000000 0.000000 0.417451 56.263249 -0.117050 0.000000 0.000000 0.000000 -0.240651 -3.781100 1.612565 -10.517772 -17.545369 -1.627609 -17.290968 3.659244 -19.428956 0.000000 0.000000 0.000000 7.125000 0.000000 0.000000 7.112670 9.826906 5.837375
-0.232205 18.205774 14.565988 -4.924675 -1.166975 -4.608428 0.000000 0.000000 0.000000 -14.318476 -1.069643 -18.029622 12.853478 18.728538 68.669818 -0.094458 -5.466576 1.797569 0.064016 -1.632365 -4.490720 0.000000 0.000000 0.000000 30.949585 9.067348 -5.112121 -2.099817 -9.070992 26.017528 -0.431771 0.209203 -12.341832 -0.167023 -2.632636 7.257672 3.568385 -0.123214 10.814631 2.638512 0.448633 0.015237 0.688102 0.154001 -6.057217 -1.471696 -3.306140 -17.697051 1.361182 -4.546035 21.512927 0.102721 -2.069979 9.817467 0.000000 0.000000 0.000000 3.317106 0.387214 -22.548227 14.270963 -23.120737 2.933669 29.120566 8.200900 -22.751355 0.000000 0.000000 0.000000 -7.125000 0.000000 0.000000 0.122051 55.622822 -0.032805 0.000000 0.000000 0.000000 -0.354578 -4.264937 2.066922 -10.518921 -17.547127 -1.627947 -17.953707 3.331052 -20.407311 0.000000 0.000000 0.000000 7.125000 0.000000 0.000000 6.736946 8.738680 5.673752
-0.224962 18.198678 14.663518 -4.919995 -1.252887 -4.472519 0.000000 0.000000 0.000000 -14.324093 -1.324440 -18.862323 12.742667 18.687045 68.324083 -0.085935 -5.355060 0.756732 0.078403 -1.801009 -4.956274 0.000000 0.000000 0.000000 30.947292 8.963522 -4.977552 -2.111263 -9.094097 26.090046 -0.455526 0.405221 -12.613834 -0.170171 -2.657679 7.327183 3.679028 -0.057924 10.783652 2.601578 0.543123 0.062385 0.571712 0.197650 -5.987053 -1.437991 -3.304737 -17.954947 1.325347 -4.542938 21.587310 0.080119 -2.066869 9.890086 0.000000 0.000000 0.000000 3.286712 0.404160 -22.535881 14.201519 -23.021996 2.906447 28.914108 7.407325 -22.004558 0.000000 0.000000 0.000000 -7.125000 0.000000 0.000000 0.078270 54.760923 -0.018729 0.000000 0.000000 0.000000 -0.486376 -4.600839 2.876297 -10.710883 -17.843267 -1.686637 -18.051947 2.732800 -20.611685 0.000000 0.000000 0.000000 7.125000 0.000000 0.000000 6.684723 8.516359 5.660747
